<svg xmlns="http://www.w3.org/2000/svg" version="1.1" xmlns:xlink="http://www.w3.org/1999/xlink" xmlns:svgjs="http://svgjs.dev/svgjs" width="1000" height="1000" viewBox="0 0 1000 1000"><rect width="1000" height="1000" fill="#ffffff"></rect><g transform="matrix(0.7,0,0,0.7,149.5757576689017,407.0042150459469)"><svg viewBox="0 0 396 105" data-background-color="#ffffff" preserveAspectRatio="xMidYMid meet" height="265" width="1000" xmlns="http://www.w3.org/2000/svg" xmlns:xlink="http://www.w3.org/1999/xlink"><g id="tight-bounds" transform="matrix(1,0,0,1,0.24000005269294888,0.13912371970516801)"><svg viewBox="0 0 395.52 104.72175272139685" height="104.72175272139685" width="395.52"><g><svg viewBox="0 0 395.52 104.72175272139685" height="104.72175272139685" width="395.52"><g transform="matrix(1,0,0,1,0,64.72224441018021)"><svg viewBox="0 0 395.52 39.99950831121665" height="39.99950831121665" width="395.52"><g id="textblocktransform"><svg viewBox="0 0 395.52 39.99950831121665" height="39.99950831121665" width="395.52" id="textblock"><g><svg viewBox="0 0 395.52 39.99950831121665" height="39.99950831121665" width="395.52"><g transform="matrix(1,0,0,1,0,0)"><svg width="395.52" viewBox="3.4000000953674316 -35.79999923706055 357.9200134277344 36.20000076293945" height="39.99950831121665" data-palette-color="#ffa458"><path d="M11.6-7.2L28.35-7.2 28.35 0 3.4 0 3.4-35.5 27.9-35.5 27.9-28.3 11.6-28.3 11.6-21.4 25.6-21.4 25.6-14.75 11.6-14.75 11.6-7.2ZM48.05-10.15L32.65-10.15 32.65-17.35 48.05-17.35 48.05-10.15ZM79.05-31.9L75.45-25.1Q75.3-25.35 74.4-25.88 73.5-26.4 72.15-27 70.8-27.6 69.2-28.05 67.59-28.5 66-28.5L66-28.5Q63.9-28.5 62.75-27.78 61.6-27.05 61.6-25.55L61.6-25.55Q61.6-24.35 62.47-23.65 63.35-22.95 65-22.43 66.65-21.9 69.05-21.2L69.05-21.2Q72.45-20.3 74.95-19.03 77.45-17.75 78.77-15.75 80.09-13.75 80.09-10.45L80.09-10.45Q80.09-7.45 79-5.38 77.9-3.3 76.02-2.02 74.15-0.75 71.75-0.18 69.34 0.4 66.8 0.4L66.8 0.4Q64.2 0.4 61.47-0.13 58.75-0.65 56.25-1.63 53.75-2.6 51.65-4L51.65-4 55.25-11.15Q55.45-10.9 56.55-10.23 57.65-9.55 59.27-8.83 60.9-8.1 62.9-7.55 64.9-7 66.95-7L66.95-7Q69.15-7 70.22-7.7 71.3-8.4 71.3-9.65L71.3-9.65Q71.3-11 70.17-11.75 69.05-12.5 67.12-13.1 65.2-13.7 62.7-14.45L62.7-14.45Q59.45-15.45 57.32-16.7 55.2-17.95 54.17-19.75 53.15-21.55 53.15-24.25L53.15-24.25Q53.15-28 54.92-30.58 56.7-33.15 59.7-34.48 62.7-35.8 66.25-35.8L66.25-35.8Q68.75-35.8 71.07-35.2 73.4-34.6 75.42-33.7 77.45-32.8 79.05-31.9L79.05-31.9ZM100.14 0.3L100.14 0.3Q95.89 0.3 92.89-1.13 89.89-2.55 88.02-5.03 86.14-7.5 85.27-10.68 84.39-13.85 84.39-17.35L84.39-17.35 84.39-35.5 92.59-35.5 92.59-17.35Q92.59-15.35 92.99-13.48 93.39-11.6 94.29-10.15 95.19-8.7 96.62-7.85 98.04-7 100.14-7L100.14-7Q102.29-7 103.74-7.88 105.19-8.75 106.04-10.23 106.89-11.7 107.29-13.55 107.69-15.4 107.69-17.35L107.69-17.35 107.69-35.5 115.89-35.5 115.89-17.35Q115.89-13.65 114.97-10.45 114.04-7.25 112.14-4.83 110.24-2.4 107.27-1.05 104.29 0.3 100.14 0.3ZM130.44 0L122.24 0 122.24-35.5 137.39-35.5Q139.94-35.5 142.06-34.48 144.19-33.45 145.74-31.73 147.29-30 148.14-27.85 148.99-25.7 148.99-23.45L148.99-23.45Q148.99-20.4 147.56-17.65 146.14-14.9 143.62-13.18 141.09-11.45 137.64-11.45L137.64-11.45 130.44-11.45 130.44 0ZM130.44-28.3L130.44-18.6 137.14-18.6Q138.09-18.6 138.89-19.15 139.69-19.7 140.19-20.8 140.69-21.9 140.69-23.5L140.69-23.5Q140.69-25.15 140.12-26.23 139.54-27.3 138.67-27.8 137.79-28.3 136.84-28.3L136.84-28.3 130.44-28.3ZM161.59-7.2L178.34-7.2 178.34 0 153.39 0 153.39-35.5 177.89-35.5 177.89-28.3 161.59-28.3 161.59-21.4 175.59-21.4 175.59-14.75 161.59-14.75 161.59-7.2ZM191.53 0L183.34 0 183.34-35.5 199.34-35.5Q201.84-35.5 203.96-34.48 206.09-33.45 207.63-31.73 209.19-30 210.06-27.85 210.94-25.7 210.94-23.5L210.94-23.5Q210.94-21.3 210.24-19.33 209.53-17.35 208.24-15.78 206.94-14.2 205.13-13.2L205.13-13.2 212.94 0 203.88 0 197.09-11.45 191.53-11.45 191.53 0ZM191.53-28.3L191.53-18.6 199.03-18.6Q200.03-18.6 200.81-19.23 201.59-19.85 202.09-20.95 202.59-22.05 202.59-23.5L202.59-23.5Q202.59-24.95 202.01-26.03 201.44-27.1 200.59-27.7 199.74-28.3 198.78-28.3L198.78-28.3 191.53-28.3ZM253.38-31.9L249.78-25.1Q249.63-25.35 248.73-25.88 247.83-26.4 246.48-27 245.13-27.6 243.53-28.05 241.93-28.5 240.33-28.5L240.33-28.5Q238.23-28.5 237.08-27.78 235.93-27.05 235.93-25.55L235.93-25.55Q235.93-24.35 236.81-23.65 237.68-22.95 239.33-22.43 240.98-21.9 243.38-21.2L243.38-21.2Q246.78-20.3 249.28-19.03 251.78-17.75 253.11-15.75 254.43-13.75 254.43-10.45L254.43-10.45Q254.43-7.45 253.33-5.38 252.23-3.3 250.36-2.02 248.48-0.75 246.08-0.18 243.68 0.4 241.13 0.4L241.13 0.4Q238.53 0.4 235.81-0.13 233.08-0.65 230.58-1.63 228.08-2.6 225.98-4L225.98-4 229.58-11.15Q229.78-10.9 230.88-10.23 231.98-9.55 233.61-8.83 235.23-8.1 237.23-7.55 239.23-7 241.28-7L241.28-7Q243.48-7 244.56-7.7 245.63-8.4 245.63-9.65L245.63-9.65Q245.63-11 244.51-11.75 243.38-12.5 241.46-13.1 239.53-13.7 237.03-14.45L237.03-14.45Q233.78-15.45 231.66-16.7 229.53-17.95 228.51-19.75 227.48-21.55 227.48-24.25L227.48-24.25Q227.48-28 229.26-30.58 231.03-33.15 234.03-34.48 237.03-35.8 240.58-35.8L240.58-35.8Q243.08-35.8 245.41-35.2 247.73-34.6 249.76-33.7 251.78-32.8 253.38-31.9L253.38-31.9ZM281.58-35.5L289.78-35.5 289.78 0 281.58 0 281.58-14.55 267.43-14.55 267.43 0 259.23 0 259.23-35.5 267.43-35.5 267.43-21.75 281.58-21.75 281.58-35.5ZM312.13 0.3L312.13 0.3Q308.13 0.3 304.9-1.23 301.68-2.75 299.35-5.33 297.03-7.9 295.78-11.13 294.53-14.35 294.53-17.8L294.53-17.8Q294.53-21.35 295.85-24.55 297.18-27.75 299.55-30.28 301.93-32.8 305.18-34.25 308.43-35.7 312.28-35.7L312.28-35.7Q316.23-35.7 319.45-34.18 322.68-32.65 325-30.05 327.32-27.45 328.57-24.23 329.82-21 329.82-17.65L329.82-17.65Q329.82-14.1 328.53-10.9 327.23-7.7 324.82-5.18 322.43-2.65 319.2-1.18 315.98 0.3 312.13 0.3ZM302.88-17.7L302.88-17.7Q302.88-15.65 303.48-13.73 304.07-11.8 305.25-10.3 306.43-8.8 308.18-7.9 309.93-7 312.18-7L312.18-7Q314.53-7 316.28-7.93 318.03-8.85 319.18-10.4 320.32-11.95 320.9-13.88 321.48-15.8 321.48-17.8L321.48-17.8Q321.48-19.85 320.88-21.75 320.28-23.65 319.07-25.18 317.88-26.7 316.13-27.55 314.38-28.4 312.18-28.4L312.18-28.4Q309.82-28.4 308.1-27.5 306.38-26.6 305.2-25.08 304.03-23.55 303.45-21.63 302.88-19.7 302.88-17.7ZM342.77 0L334.57 0 334.57-35.5 349.72-35.5Q352.27-35.5 354.4-34.48 356.52-33.45 358.07-31.73 359.62-30 360.47-27.85 361.32-25.7 361.32-23.45L361.32-23.45Q361.32-20.4 359.9-17.65 358.47-14.9 355.95-13.18 353.42-11.45 349.97-11.45L349.97-11.45 342.77-11.45 342.77 0ZM342.77-28.3L342.77-18.6 349.47-18.6Q350.42-18.6 351.22-19.15 352.02-19.7 352.52-20.8 353.02-21.9 353.02-23.5L353.02-23.5Q353.02-25.15 352.45-26.23 351.87-27.3 351-27.8 350.12-28.3 349.17-28.3L349.17-28.3 342.77-28.3Z" opacity="1" transform="matrix(1,0,0,1,0,0)" fill="#ffa458" class="wordmark-text-0" data-fill-palette-color="primary" id="text-0"></path></svg></g></svg></g></svg></g></svg></g><g transform="matrix(1,0,0,1,155.2560220384818,0)"><svg viewBox="0 0 85.00795592303638 55.279320486101426" height="55.279320486101426" width="85.00795592303638"><g><svg xmlns="http://www.w3.org/2000/svg" xmlns:xlink="http://www.w3.org/1999/xlink" version="1.1" x="8" y="0" viewBox="9.223999977111816 11.142000198364258 85.125 68.18999481201172" enable-background="new 0 0 100 100" xml:space="preserve" height="55.279320486101426" width="69.00795592303638" class="icon-icon-0" data-fill-palette-color="accent" id="icon-0"><g fill="#ba3b0a" data-fill-palette-color="accent"><g fill="#ba3b0a" data-fill-palette-color="accent"><path d="M22.958 79.083h57.658M82.941 79.331c1.234 0 2.324-1 2.324-2.238V52.198c0.93 0.211 1.283 0.334 1.957 0.334 3.905 0 6.816-4.028 7.014-6.667l0.113-1.245h-0.098c0.005 0 0.014-0.231-0.025-0.359-0.06-0.19-0.177-0.321-0.312-0.444L84.18 11.924c-0.143-0.469-0.576-0.782-1.068-0.782H20.464c-0.493 0-0.929 0.324-1.071 0.797l-9.59 31.799c-0.224 0.151-0.399 0.336-0.479 0.603-0.03 0.107-0.018 0.279-0.018 0.279H9.224l0.091 1.246c0.199 2.638 3.128 6.646 7.035 6.646 0.674 0 1.028-0.104 1.958-0.313v24.895c0 1.238 1.091 2.238 2.326 2.238M70.611 44.62l-4.199-31.618h6.708l6.993 31.618H70.611zM47.05 44.62l1.389-31.618h6.446l1.327 31.618H47.05zM23.523 44.62l6.919-31.618h6.751L32.911 44.62H23.523zM22.957 72.521V49.557c0.93 1.638 3.045 2.978 5.306 2.978 2.572 0 4.634-1.735 5.849-3.668 1.213 1.933 3.308 3.668 5.881 3.668 2.572 0 4.684-1.735 5.896-3.668 1.213 1.933 3.332 3.668 5.906 3.668 2.572 0 4.696-1.735 5.91-3.668 1.212 1.933 3.337 3.668 5.908 3.668 2.574 0 4.699-1.735 5.914-3.668 1.213 1.933 3.209 3.668 5.783 3.668 2.262 0 4.373-1.34 5.303-2.978v22.964H22.957L22.957 72.521z" fill="#ba3b0a" data-fill-palette-color="accent"></path></g></g><path d="M73 71.125C73 74.37 70.37 77 67.125 77l0 0c-3.245 0-5.875-2.63-5.875-5.875v-7.75c0-3.245 2.63-5.875 5.875-5.875l0 0C70.37 57.5 73 60.13 73 63.375V71.125z" fill="#ba3b0a" data-fill-palette-color="accent"></path><path d="M58 71.125C58 74.37 55.37 77 52.125 77l0 0c-3.245 0-5.875-2.63-5.875-5.875v-7.75c0-3.245 2.63-5.875 5.875-5.875l0 0C55.37 57.5 58 60.13 58 63.375V71.125z" fill="#ba3b0a" data-fill-palette-color="accent"></path><path d="M43 71.125C43 74.37 40.37 77 37.125 77l0 0c-3.245 0-5.875-2.63-5.875-5.875v-7.75c0-3.245 2.63-5.875 5.875-5.875l0 0C40.37 57.5 43 60.13 43 63.375V71.125z" fill="#ba3b0a" data-fill-palette-color="accent"></path></svg></g></svg></g><g><rect width="155.2560220384818" height="3.607196938998095" y="50.672123547103325" x="240.26397796151818" fill="#ba3b0a" data-fill-palette-color="accent"></rect><rect width="155.2560220384818" height="3.607196938998095" y="50.672123547103325" x="0" fill="#ba3b0a" data-fill-palette-color="accent"></rect><rect width="155.2560220384818" height="3.607196938998095" y="43.45772966910714" x="240.26397796151818" fill="#ba3b0a" data-fill-palette-color="accent"></rect><rect width="155.2560220384818" height="3.607196938998095" y="43.45772966910714" x="0" fill="#ba3b0a" data-fill-palette-color="accent"></rect></g></svg></g><defs></defs></svg><rect width="395.52" height="104.72175272139685" fill="none" stroke="none" visibility="hidden"></rect></g></svg></g></svg>